<?xml version="1.0" standalone="no"?>
<!DOCTYPE svg PUBLIC "-//W3C//DTD SVG 20010904//EN"
 "http://www.w3.org/TR/2001/REC-SVG-20010904/DTD/svg10.dtd">
<svg version="1.0" xmlns="http://www.w3.org/2000/svg"
 width="2000.000000pt" height="2000.000000pt" viewBox="0 0 2000.000000 2000.000000"
 preserveAspectRatio="xMidYMid meet">

<g transform="translate(0.000000,2000.000000) scale(0.100000,-0.100000)"
fill="#000000" stroke="none">
<path d="M5134 11829 c-28 -10 -36 -33 -28 -88 8 -59 -11 -216 -34 -283 -17
-51 -17 -51 -128 -107 -273 -139 -465 -334 -598 -606 -35 -71 -72 -155 -81
-185 -10 -30 -21 -59 -25 -64 -5 -5 -18 22 -29 59 -23 73 -27 172 -10 245 15
67 74 179 129 248 70 87 75 98 55 128 -12 18 -23 24 -43 22 -38 -4 -122 -112
-183 -235 l-51 -102 -41 21 c-29 15 -67 23 -123 26 -73 4 -84 2 -103 -17 -24
-24 -26 -40 -8 -65 10 -14 29 -18 93 -19 70 -2 86 -6 122 -30 42 -27 42 -28
42 -90 0 -107 40 -231 101 -318 16 -22 17 -34 8 -80 -5 -30 -12 -162 -16 -294
-5 -198 -3 -259 11 -350 32 -205 82 -369 160 -530 19 -38 34 -70 33 -71 -1 0
-28 -17 -61 -38 -71 -47 -63 -55 49 -56 l80 -1 55 -70 c82 -105 211 -215 336
-288 38 -22 62 -41 54 -42 -39 -3 -101 4 -159 17 -71 16 -96 12 -112 -17 -22
-43 0 -63 101 -90 64 -18 263 -15 323 4 42 13 54 14 90 2 193 -64 609 -91 987
-65 248 18 410 52 577 122 277 115 502 387 582 703 22 86 43 234 35 247 -3 4
-67 8 -143 8 l-139 0 -34 43 c-74 90 -128 206 -128 274 l0 28 -86 -10 c-82
-10 -87 -12 -123 -50 -20 -22 -68 -92 -105 -155 -84 -141 -157 -240 -207 -279
-96 -77 -250 -142 -444 -186 -98 -23 -144 -28 -250 -28 -196 0 -323 41 -446
143 l-46 38 -34 -21 c-19 -11 -36 -22 -38 -23 -2 -2 7 -15 19 -31 l21 -27 -67
-23 c-37 -13 -76 -23 -85 -23 -20 0 -73 80 -126 190 -87 181 -114 309 -120
572 -4 127 -1 226 6 280 46 315 179 569 381 722 68 52 130 90 136 84 2 -3 -2
-37 -11 -77 -8 -40 -15 -95 -15 -122 0 -48 1 -49 29 -49 43 0 61 10 61 31 0
35 31 171 51 225 19 51 23 54 72 69 79 24 232 45 329 45 l87 0 -6 -37 -6 -37
53 38 54 39 91 -12 c299 -40 506 -156 616 -346 29 -50 62 -147 74 -217 l6 -38
243 0 243 0 6 -46 c6 -54 16 -66 52 -66 40 0 50 17 48 79 -3 70 -17 121 -53
203 -16 36 -43 102 -61 148 -114 304 -449 561 -834 642 -142 30 -347 50 -508
50 l-148 0 27 51 c29 52 81 101 127 118 52 20 39 101 -15 101 -61 0 -192 -122
-224 -207 -9 -26 -23 -53 -30 -59 -8 -6 -54 -14 -103 -17 -49 -4 -144 -18
-211 -33 -67 -14 -123 -24 -124 -22 -2 1 2 37 10 78 15 87 18 238 5 273 -11
27 -37 38 -67 26z m1665 -2135 c13 -51 74 -179 91 -189 24 -15 6 -24 -52 -27
l-63 -3 -7 -63 c-15 -136 -61 -244 -151 -349 -69 -81 -116 -117 -212 -163
-154 -73 -313 -101 -574 -101 -318 0 -523 57 -708 198 -70 53 -82 73 -45 73 9
0 46 13 82 28 l64 27 62 -32 c239 -127 643 -102 979 62 167 81 235 150 371
378 75 126 132 207 144 207 4 0 13 -21 19 -46z"/>
<path d="M4432 11818 c-5 -7 -23 -40 -40 -73 -35 -69 -57 -92 -106 -109 -32
-11 -45 -9 -106 11 -39 13 -118 29 -176 35 -177 20 -388 -20 -546 -104 -56
-29 -153 -114 -200 -175 -13 -17 -28 -23 -55 -23 -160 -1 -358 -139 -461 -322
-110 -195 -190 -554 -131 -591 25 -15 68 0 73 26 2 12 11 69 20 126 53 341
221 589 440 647 62 17 196 18 267 3 68 -15 99 -2 99 41 0 36 -27 56 -88 66
l-43 7 38 39 c21 22 74 57 119 79 263 128 630 100 803 -60 48 -44 70 -50 95
-25 26 26 18 56 -25 100 l-41 42 26 18 c35 22 80 88 106 154 19 48 19 54 5 76
-17 26 -56 32 -73 12z"/>
<path d="M15193 11455 c-153 -24 -231 -63 -322 -160 -106 -112 -141 -232 -141
-492 l0 -173 -230 0 -230 0 0 -165 0 -165 228 -2 227 -3 3 -907 2 -908 245 0
245 0 0 910 0 910 270 0 270 0 0 165 0 165 -271 0 -271 0 4 158 c3 141 5 161
26 202 60 115 122 145 297 145 66 0 141 -4 168 -8 l47 -8 0 159 0 159 -52 13
c-76 19 -412 22 -515 5z"/>
<path d="M13415 11447 c-3 -7 -4 -100 -3 -207 l3 -195 250 0 250 0 0 205 0
205 -248 3 c-195 2 -249 0 -252 -11z"/>
<path d="M7790 9960 l0 -1480 245 0 245 0 0 1480 0 1480 -245 0 -245 0 0
-1480z"/>
<path d="M3120 10960 c-47 -47 15 -185 137 -309 46 -46 83 -88 83 -92 0 -5
-24 -32 -53 -61 -56 -56 -144 -105 -239 -133 -31 -9 -62 -22 -68 -30 -15 -19
-9 -55 12 -69 47 -29 259 59 355 148 52 48 133 164 133 191 0 5 -20 21 -44 33
-96 51 -226 211 -226 279 0 26 -32 63 -55 63 -8 0 -24 -9 -35 -20z"/>
<path d="M6490 10698 c-25 -12 -70 -47 -100 -78 l-56 -56 -62 32 c-35 17 -91
37 -125 44 -34 6 -74 20 -88 31 l-27 19 -25 -43 c-14 -24 -29 -56 -33 -71 -6
-25 -4 -26 18 -21 40 10 160 -14 225 -46 106 -51 179 -151 207 -281 5 -23 12
-28 35 -28 16 0 37 -3 47 -7 15 -6 17 -1 11 50 -9 69 -37 144 -78 203 l-30 44
45 48 c58 62 116 90 152 74 56 -26 94 -9 94 40 0 24 -7 32 -42 48 -56 25 -112
24 -168 -2z"/>
<path d="M9610 10699 c-380 -36 -628 -175 -749 -421 -35 -72 -63 -192 -59
-252 l3 -41 242 -3 241 -2 7 52 c18 135 75 210 206 273 99 47 183 60 394 60
136 -1 196 -5 248 -18 204 -51 318 -166 319 -322 0 -105 -43 -176 -132 -214
-70 -30 -185 -47 -560 -81 -370 -34 -463 -47 -583 -84 -197 -60 -352 -202
-416 -380 -21 -60 -25 -88 -25 -186 0 -183 42 -299 150 -419 142 -157 317
-216 669 -228 297 -9 519 27 667 110 66 37 166 120 229 191 l36 41 17 -56 c31
-108 117 -203 209 -231 47 -14 383 -18 430 -5 l27 7 0 155 0 155 -38 -6 c-57
-9 -117 11 -146 49 -42 55 -46 115 -46 701 0 617 -2 636 -67 766 -111 221
-354 345 -765 390 -110 11 -381 11 -508 -1z m841 -1291 c-19 -180 -88 -362
-172 -453 -91 -99 -208 -154 -382 -179 -179 -27 -365 -16 -456 27 -56 26 -130
98 -156 152 -12 25 -21 68 -23 118 -4 68 -1 84 23 132 29 61 87 114 156 144
71 31 179 49 404 66 411 31 509 50 585 113 33 27 35 17 21 -120z"/>
<path d="M12850 10669 c-160 -9 -251 -26 -351 -68 -148 -62 -252 -148 -342
-284 l-52 -80 -3 197 -2 196 -240 0 -240 0 0 -1075 0 -1075 244 0 245 0 4 548
c4 567 9 638 52 785 35 119 123 250 218 326 128 101 340 161 575 161 l102 0 0
190 0 190 -37 -2 c-21 0 -99 -4 -173 -9z"/>
<path d="M13420 9555 l0 -1075 245 0 245 0 0 1075 0 1075 -245 0 -245 0 0
-1075z"/>
<path d="M15900 10625 c0 -2 211 -469 470 -1036 l469 -1032 -45 -126 c-81
-224 -149 -328 -248 -378 -43 -22 -68 -27 -156 -31 -95 -4 -186 5 -233 23 -16
7 -17 -3 -15 -156 l3 -164 65 -19 c89 -27 418 -29 524 -3 166 41 287 148 403
357 63 114 150 316 614 1425 l478 1140 -237 3 c-129 1 -239 -1 -243 -5 -3 -5
-147 -372 -319 -818 -172 -445 -315 -813 -319 -817 -3 -3 -161 365 -351 818
l-345 824 -257 0 c-142 0 -258 -2 -258 -5z"/>
<path d="M2102 10188 c-7 -7 -12 -25 -12 -41 0 -24 7 -31 45 -48 25 -11 68
-23 95 -26 28 -3 50 -8 50 -10 0 -2 -11 -26 -25 -53 -72 -142 -74 -323 -5
-466 75 -154 302 -285 334 -192 12 35 -9 60 -62 76 -163 49 -264 279 -206 473
19 63 74 149 116 183 l30 23 -23 42 c-19 33 -28 40 -44 35 -49 -16 -171 -16
-209 0 -46 19 -68 20 -84 4z"/>
<path d="M6925 10176 c-34 -28 -30 -30 48 -41 45 -6 47 -5 47 19 0 25 -24 46
-52 46 -7 0 -26 -11 -43 -24z"/>
<path d="M7262 10188 c-7 -7 -12 -25 -12 -40 0 -22 8 -32 43 -50 39 -22 169
-69 174 -64 1 1 -11 25 -28 54 -46 80 -142 135 -177 100z"/>
<path d="M7444 9935 l-32 -14 -4 -118 c-4 -90 -11 -133 -29 -181 -26 -71 -21
-95 24 -100 35 -4 59 23 81 91 17 53 19 56 39 45 53 -27 98 -73 123 -124 25
-52 27 -61 20 -146 -7 -101 0 -118 45 -118 34 0 46 19 60 95 13 70 -3 162 -39
228 -33 61 -117 139 -176 163 l-46 19 -1 55 c-2 68 -11 113 -24 116 -5 1 -24
-4 -41 -11z"/>
<path d="M3045 9818 c146 -81 236 -168 299 -287 21 -40 36 -74 34 -75 -1 -1
-28 -14 -58 -29 -77 -37 -141 -96 -199 -182 -59 -88 -88 -162 -107 -270 -11
-61 -12 -86 -3 -107 6 -16 15 -28 19 -28 5 0 15 -3 23 -6 25 -9 57 32 57 72 0
55 28 150 65 223 61 122 159 208 262 232 48 11 51 14 73 65 27 66 113 149 200
192 33 17 104 41 156 53 105 24 106 29 7 55 -79 20 -109 20 -173 -5 -71 -27
-139 -70 -199 -126 l-48 -45 -39 62 c-21 35 -70 95 -109 134 l-70 70 -105 13
c-58 6 -114 14 -125 17 -11 3 7 -10 40 -28z"/>
<path d="M3532 9088 c-21 -21 -13 -55 18 -81 28 -24 127 -67 154 -67 24 0 25
-12 1 -49 -51 -76 -68 -146 -69 -281 -1 -131 7 -163 43 -173 11 -2 29 1 40 9
18 13 19 22 14 122 -7 136 7 195 81 331 31 56 56 104 56 106 0 3 -12 5 -28 5
-43 0 -173 39 -219 66 -46 27 -73 30 -91 12z"/>
<path d="M7583 9050 c-12 -5 -27 -18 -33 -29 -36 -68 -222 -160 -324 -161
l-59 0 5 -75 c4 -60 12 -90 42 -150 103 -208 392 -392 374 -238 -2 22 -14 34
-56 57 -102 54 -227 194 -247 276 -6 23 -2 27 40 38 94 25 197 83 263 147 52
51 63 67 60 90 -4 35 -35 56 -65 45z"/>
<path d="M4729 8123 c350 -463 600 -883 733 -1232 64 -168 100 -233 156 -282
138 -122 322 -46 339 139 4 41 -1 87 -16 152 -12 51 -38 169 -57 263 -19 94
-35 171 -36 172 -2 1 -40 14 -86 29 -183 60 -282 149 -317 283 -30 116 -12
226 51 309 19 25 34 47 32 49 -2 1 -176 32 -388 69 -212 37 -396 69 -409 72
l-23 5 21 -28z"/>
</g>
</svg>
